<?xml version="1.0" encoding="UTF-8"?>
<!DOCTYPE svg PUBLIC "-//W3C//DTD SVG 1.1//EN" "http://www.w3.org/Graphics/SVG/1.1/DTD/svg11.dtd">
<!-- Creator: CorelDRAW X8 -->
<svg xmlns="http://www.w3.org/2000/svg" xml:space="preserve" width="280mm" height="217.076mm" version="1.1" style="shape-rendering:geometricPrecision; text-rendering:geometricPrecision; image-rendering:optimizeQuality; fill-rule:evenodd; clip-rule:evenodd"
viewBox="0 0 28000 21708"
 xmlns:xlink="http://www.w3.org/1999/xlink">
 <defs>
  <style type="text/css">
   <![CDATA[
    .fil1 {fill:#333333}
    .fil0 {fill:#333333;fill-rule:nonzero}
   ]]>
  </style>
 </defs>
 <g id="Слой_x0020_1">
  <metadata id="CorelCorpID_0Corel-Layer"/>
  <g id="_2129764866768">
   <g>
    <path class="fil0" d="M4433 18177c-282,548 -581,852 -1128,852 -830,0 -1422,-702 -1422,-1731 0,-835 481,-1609 1383,-1609 569,0 918,227 1067,824l172 -39c-34,-304 -72,-536 -117,-846 -149,-28 -530,-149 -978,-149 -1256,0 -2146,768 -2146,1930 0,873 608,1830 2002,1830 393,0 863,-110 1017,-149 100,-183 238,-597 316,-852l-166 -61zm3213 72c-83,221 -183,410 -282,526 -122,138 -282,182 -681,182 -265,0 -459,0 -564,-66 -99,-67 -132,-194 -132,-454l0 -1023 497 0c482,0 526,33 598,426l166 0 0 -1067 -166 0c-67,370 -105,415 -598,415l-497 0 0 -1245c0,-166 16,-182 193,-182l393 0c381,0 531,38 614,160 72,111 132,243 182,470l172 -27c-22,-294 -50,-670 -50,-802l-2489 0 0 160c421,39 470,61 470,553l0 2184c0,454 -49,498 -547,537l0 160 2699 0c44,-171 160,-686 188,-879l-166 -28zm5092 907l0 -160c-470,-44 -492,-78 -503,-653l-55 -2007c-17,-548 16,-564 497,-614l0 -160 -974 0 -1244 2704 -1222 -2704 -952 0 0 160c498,50 531,83 482,785l-83 1140c-39,580 -78,829 -106,1017 -38,227 -149,293 -464,326l0 166 1295 0 0 -166c-371,-33 -498,-77 -509,-337 -5,-210 -5,-459 17,-912l77 -1549 17 0 1216 2926 116 0 1327 -3003 22 0 17 2234c5,569 -17,603 -459,647l0 160 1488 0zm3092 -907c-83,221 -182,410 -282,526 -121,138 -282,182 -680,182 -265,0 -459,0 -564,-66 -100,-67 -133,-194 -133,-454l0 -1023 498 0c481,0 525,33 597,426l166 0 0 -1067 -166 0c-66,370 -105,415 -597,415l-498 0 0 -1245c0,-166 17,-182 194,-182l392 0c382,0 531,38 614,160 72,111 133,243 183,470l171 -27c-22,-294 -50,-670 -50,-802l-2488 0 0 160c420,39 470,61 470,553l0 2184c0,454 -50,498 -548,537l0 160 2699 0c44,-171 161,-686 188,-879l-166 -28zm581 -2687l0 160c404,33 453,55 453,542l0 2195c0,459 -49,504 -486,537l0 160 1537 0 0 -160c-492,-33 -536,-67 -536,-531l0 -852 403 105c61,6 161,6 244,-5 547,-72 1084,-415 1084,-1139 0,-360 -139,-620 -365,-786 -222,-160 -537,-226 -935,-226l-1399 0zm968 492c0,-144 16,-210 55,-243 39,-39 144,-67 288,-67 436,0 807,249 807,852 0,708 -437,890 -769,890 -166,0 -315,-33 -381,-61l0 -1371zm5535 3102l0 -160c-265,-28 -420,-94 -608,-443 -177,-326 -326,-624 -426,-801 -182,-321 -392,-448 -663,-526l0 -16c94,-50 326,-188 536,-614 260,-526 382,-714 614,-714l122 0c116,-5 226,-66 226,-171 0,-122 -110,-232 -304,-232 -249,0 -459,160 -652,586 -205,459 -310,702 -482,863 -182,177 -337,221 -702,226l0 -918c0,-448 44,-481 465,-514l0 -160 -1449 0 0 160c420,33 464,66 464,514l0 2218c0,475 -44,509 -464,542l0 160 1449 0 0 -160c-421,-33 -465,-67 -465,-548l0 -1106c360,-5 575,56 791,520 149,304 304,625 382,785 160,332 315,509 674,509l492 0zm3877 0l0 -160c-359,-39 -437,-94 -608,-570 -354,-956 -725,-1996 -1068,-2947l-193 55 -1139 2887c-194,486 -266,525 -625,575l0 160 1211 0 0 -160c-415,-44 -454,-100 -343,-437 72,-227 149,-453 232,-691l1162 0c116,320 221,602 287,813 72,221 28,271 -315,315l0 160 1399 0zm-1454 -1532l-990 0c166,-448 332,-912 503,-1371l17 0 470 1371z"/>
    <path class="fil1" d="M67 5306c-201,482 94,1812 289,2249 245,551 679,1077 1166,1416 1990,1386 5138,1566 7658,2738 878,409 1621,1019 2111,1799 187,299 264,620 417,863 55,-679 -307,-1547 -608,-2000 -2092,-3148 -9103,-1400 -10759,-6050 -96,-271 -182,-809 -274,-1015z"/>
    <path class="fil1" d="M16309 14301c7,-9 15,-21 19,-28 127,-194 52,-119 201,-444 169,-371 543,-878 811,-1143l718 -571c2264,-1569 6057,-1552 8427,-3184 408,-281 1035,-956 1190,-1388 277,-771 374,-1322 302,-2237l-76 159c-15,47 -15,65 -26,126 -18,93 -35,167 -58,256 -106,391 -359,1054 -560,1354 -1141,1706 -2967,2222 -5018,2722 -1397,340 -2770,585 -3941,1218 -1062,574 -1960,1546 -1989,3160z"/>
    <path class="fil1" d="M19572 10216c5,-7 10,-16 13,-21 83,-150 32,-91 125,-340 105,-283 354,-678 539,-889 166,-154 333,-307 500,-461 1591,-1283 4400,-1474 6065,-2809 287,-230 715,-764 806,-1092 164,-585 206,-998 104,-1672 -16,41 -32,82 -48,122 -9,35 -8,49 -13,94 -8,70 -16,126 -29,193 -57,296 -209,800 -341,1032 -753,1324 -2077,1805 -3568,2285 -1015,327 -2018,582 -2851,1113 -755,482 -1367,1250 -1302,2445z"/>
    <path class="fil1" d="M19687 8810c3,-6 6,-13 8,-18 52,-121 18,-72 70,-269 310,-1334 1748,-2022 2924,-2333 1727,-458 3200,-1590 2694,-3582 -9,33 -18,65 -28,97 -3,28 -1,39 -2,74 -1,54 -3,97 -8,149 -150,1630 -1395,2246 -2776,2634 -1433,403 -3167,1404 -2882,3248z"/>
    <path class="fil1" d="M19807 7403c2,-5 5,-13 6,-17 32,-118 7,-68 29,-257 26,-214 133,-530 226,-708 90,-134 180,-269 270,-404 890,-1158 2809,-1761 3742,-2968 161,-208 369,-650 378,-893 15,-434 -25,-728 -209,-1179 -4,31 -9,62 -13,93 0,26 3,35 7,68 6,50 10,90 12,138 10,215 -11,591 -64,775 -301,1045 -1140,1601 -2095,2184 -651,397 -1305,743 -1794,1251 -444,462 -740,1097 -495,1917z"/>
    <path class="fil1" d="M19925 5997c1,-5 1,-12 2,-15 7,-103 -6,-58 -18,-216 -15,-180 21,-456 68,-617l155 -376c540,-1095 2014,-1905 2581,-3047 98,-197 196,-593 163,-794 -59,-358 -140,-593 -364,-932l4 78c5,21 9,29 17,54 13,40 23,73 33,112 43,175 88,486 74,645 -75,907 -671,1500 -1359,2135 -468,432 -947,823 -1265,1320 -288,451 -427,1021 -91,1653z"/>
    <path class="fil1" d="M20935 9912c4,-4 8,-8 10,-11 62,-82 27,-51 103,-190 86,-159 268,-371 395,-479l336 -230c1051,-621 2728,-491 3828,-1136 190,-111 489,-389 571,-575 147,-332 208,-572 206,-979l-39 68c-8,20 -9,28 -16,54 -11,41 -20,73 -34,112 -59,169 -192,454 -291,580 -559,718 -1383,887 -2306,1042 -629,105 -1243,169 -1781,411 -488,220 -917,621 -982,1333z"/>
    <path class="fil1" d="M8428 10216c-5,-7 -10,-16 -13,-21 -83,-150 -32,-91 -125,-340 -105,-283 -354,-678 -539,-889 -166,-154 -333,-307 -500,-461 -1591,-1283 -4400,-1474 -6065,-2809 -287,-230 -715,-764 -806,-1092 -164,-585 -206,-998 -104,-1672 16,41 32,82 48,122 9,35 8,49 13,94 8,70 16,126 29,193 57,296 209,800 341,1032 753,1324 2076,1805 3568,2285 1015,327 2018,582 2851,1113 754,482 1367,1250 1302,2445z"/>
    <path class="fil1" d="M8313 8810c-3,-6 -6,-13 -8,-18 -52,-121 -18,-72 -70,-269 -310,-1334 -1748,-2022 -2924,-2333 -1727,-458 -3200,-1590 -2694,-3582 9,33 18,65 28,97 3,28 1,39 2,74 1,54 3,97 8,149 150,1630 1395,2246 2776,2634 1433,403 3167,1404 2882,3248z"/>
    <path class="fil1" d="M8193 7403c-2,-5 -5,-13 -6,-17 -32,-118 -7,-68 -29,-257 -26,-214 -133,-530 -226,-708 -90,-134 -180,-269 -270,-404 -890,-1158 -2809,-1761 -3742,-2968 -161,-208 -369,-650 -378,-893 -15,-434 25,-728 209,-1179 4,31 8,62 13,93 0,26 -3,35 -7,68 -6,50 -10,90 -12,138 -10,215 11,591 64,775 301,1045 1140,1601 2095,2184 651,397 1305,743 1794,1251 444,462 740,1097 495,1917z"/>
    <path class="fil1" d="M8075 5997c-1,-5 -1,-12 -2,-15 -7,-103 6,-58 18,-216 15,-180 -21,-456 -68,-617l-155 -376c-540,-1095 -2014,-1905 -2581,-3047 -98,-197 -196,-593 -163,-794 59,-358 140,-593 364,-932l-4 78c-5,21 -9,29 -17,54 -13,40 -23,73 -33,112 -43,175 -88,486 -74,645 75,907 671,1500 1359,2135 468,432 947,823 1265,1320 288,451 427,1021 91,1653z"/>
    <path class="fil1" d="M7065 9912c-4,-4 -8,-8 -10,-11 -62,-82 -27,-51 -103,-190 -86,-159 -268,-371 -395,-479l-336 -230c-1051,-621 -2728,-491 -3828,-1136 -190,-111 -489,-389 -571,-575 -148,-332 -208,-572 -206,-979l39 68c8,20 9,28 16,54 10,41 20,73 34,112 59,169 192,454 291,580 559,718 1383,887 2306,1042 628,105 1243,169 1781,411 488,220 917,621 982,1333z"/>
    <polygon class="fil1" points="18721,1150 9274,4039 9274,10159 13998,13848 18721,10158 18721,3563 15330,5112 17890,5112 17890,9752 13998,12793 10105,9752 10105,5112 18726,1154 "/>
    <path class="fil0" d="M14254 13531c-134,-4596 1196,-6495 3190,-7010l-4498 -12 -1408 644c1077,-8 2154,-16 3231,-23 -1601,1896 -1288,3869 -928,5928 138,158 275,315 413,473z"/>
    <path class="fil1" d="M13769 14355c183,0 331,148 331,331 0,183 -148,331 -331,331 -183,0 -331,-148 -331,-331 0,-183 148,-331 331,-331z"/>
    <path class="fil1" d="M15145 14355c183,0 331,148 331,331 0,183 -148,331 -331,331 -183,0 -331,-148 -331,-331 0,-183 148,-331 331,-331z"/>
   </g>
   <path class="fil1" d="M2907 21301l0 80 -566 0 0 -102 22 -2c70,-7 106,-13 121,-34 17,-24 18,-73 17,-167l-5 -681 -430 972 -72 0 -393 -945 -22 443c-4,79 -6,140 -7,190 0,50 0,89 1,125 1,37 10,57 30,69 23,14 64,20 125,26l22 2 0 104 -499 0 0 -104 22 -2c51,-6 84,-13 106,-28 18,-13 28,-33 34,-65l1 -8c10,-64 22,-152 35,-344l29 -396c8,-117 10,-178 -9,-207 -16,-27 -58,-33 -136,-41l-22 -2 0 -102 371 0 409 906 417 -906 378 0 0 102 -22 2c-77,8 -118,14 -135,34 -18,21 -19,66 -16,155l19 698c2,95 5,145 23,169 17,22 56,28 130,35l22 2 0 22zm1201 -165c17,-31 32,-66 46,-103l7 -19 101 17 -3 23c-4,30 -14,80 -26,133 -14,68 -31,141 -40,175l-5 19 -981 0 0 -103 22 -2c81,-6 125,-12 145,-32 20,-19 23,-58 23,-130l0 -759c0,-80 -3,-120 -20,-139 -17,-19 -54,-23 -121,-30l-22 -2 0 -102 914 0 0 25c0,23 2,66 5,117 3,49 8,108 12,160l1 22 -104 17 -5 -23c-8,-38 -17,-68 -27,-93 -10,-24 -21,-44 -33,-62 -11,-16 -27,-27 -53,-34 -31,-8 -76,-11 -140,-11l-136 0c-25,0 -37,1 -41,3 -2,3 -2,14 -2,36l0 409 148 0c81,0 123,-4 145,-20 21,-14 29,-47 39,-105l4 -20 102 0 0 420 -102 0 -4 -20c-11,-62 -20,-95 -41,-110 -22,-16 -64,-18 -143,-18l-148 0 0 331c0,43 2,75 9,98 5,19 14,32 26,40 30,19 95,19 182,19 68,0 114,-4 149,-13 31,-8 52,-22 70,-42 16,-19 32,-43 47,-72zm1482 125l141 0 -52 447 -103 0c-9,-65 -16,-135 -28,-199 -7,-58 -16,-91 -33,-108 -15,-16 -40,-20 -81,-20l-611 0c-46,0 -73,6 -90,24 -19,21 -31,58 -47,119 -19,57 -35,124 -51,184l-103 0 11 -447 108 0c10,0 18,-1 24,-4 5,-4 11,-11 16,-23l1 0c105,-201 158,-571 158,-945 0,-37 -4,-57 -15,-68 -12,-12 -35,-17 -74,-23l-96 -15 1 -101 1046 0 0 103 -22 2c-68,5 -104,10 -121,29 -17,21 -20,64 -20,146l0 823c0,40 1,62 7,70 3,5 14,6 34,6zm-287 -18c13,-14 16,-44 16,-98l0 -840c0,-57 0,-86 -6,-97 -3,-5 -17,-6 -44,-6l-219 0c-32,0 -49,1 -54,5 -3,2 -3,13 -3,34 0,171 -10,365 -35,553 -21,157 -52,309 -97,440 -5,13 -7,22 -6,24 0,1 7,1 21,1l349 0c42,0 66,-3 78,-16zm2109 58l0 80 -555 0 0 -103 23 -2c67,-5 105,-9 122,-28 17,-19 21,-59 21,-138l0 -492c0,-30 0,-70 1,-133 0,-38 1,-83 3,-136l-546 924c-6,10 -9,19 -11,29 -2,9 -3,20 -3,31l0 48 -408 0 0 -105 23 -1c67,-6 104,-11 120,-31 18,-20 21,-64 21,-145l0 -754c0,-73 -3,-111 -20,-130 -17,-18 -54,-23 -121,-28l-23 -2 0 -103 551 0 0 103 -23 2c-66,5 -102,10 -119,27 -17,19 -20,57 -20,129l0 454c0,41 0,85 -1,150 -1,42 -2,89 -5,145l541 -913c7,-12 12,-22 15,-31 2,-8 3,-15 3,-22l0 -44 411 0 0 103 -23 2c-67,5 -105,10 -122,30 -17,21 -21,64 -21,143l0 750c0,78 3,118 21,138 17,18 54,23 122,28l23 2 0 23zm1538 -44l141 0 -52 451 -105 0 -25 -198c-8,-58 -18,-91 -35,-109 -15,-16 -40,-20 -82,-20l-1043 0 0 -103 22 -2c71,-5 109,-9 127,-28 17,-20 20,-61 20,-142l0 -759c0,-74 -3,-114 -20,-133 -17,-18 -55,-23 -124,-27l-23 -2 0 -103 564 0 0 103 -23 2c-69,4 -106,9 -124,27 -17,19 -21,59 -21,133l0 802c0,54 3,83 15,96 11,12 39,14 90,14l323 0c51,0 80,-1 91,-12 11,-11 14,-38 14,-91l0 -799c0,-80 -3,-122 -21,-142 -17,-19 -55,-24 -124,-28l-23 -2 0 -103 562 0 0 103 -23 2c-68,4 -105,9 -122,28 -17,20 -20,62 -20,142l0 828c0,40 1,60 7,68 3,4 14,4 34,4zm1833 44l0 80 -554 0 0 -103 22 -2c68,-5 106,-9 122,-28 18,-19 21,-59 21,-138l0 -492c0,-30 0,-70 1,-133 1,-38 2,-83 4,-136l-546 924c-6,10 -10,19 -12,29 -2,9 -2,20 -2,31l0 48 -408 0 0 -105 22 -1c68,-6 104,-11 121,-31 17,-20 20,-64 20,-145l0 -754c0,-73 -3,-111 -20,-130 -16,-18 -53,-23 -121,-28l-22 -2 0 -103 550 0 0 103 -22 2c-66,5 -102,10 -119,27 -17,19 -20,57 -20,129l0 454c0,41 0,85 -1,150 -1,42 -3,89 -5,145l541 -913c7,-12 12,-22 14,-31 3,-8 4,-15 4,-22l0 -44 410 0 0 103 -22 2c-68,5 -105,10 -122,30 -18,21 -21,64 -21,143l0 750c0,78 3,118 21,138 17,18 54,23 122,28l22 2 0 23zm1183 -1219l540 0 0 103 -23 2c-72,6 -111,11 -128,29 -18,18 -21,57 -21,131l0 769c0,74 3,113 21,131 17,18 56,23 128,29l23 2 0 103 -578 0 0 -103 22 -2c75,-6 116,-11 134,-29 18,-18 21,-57 21,-131l0 -354 -582 0 0 354c0,74 3,113 20,131 17,18 56,23 127,29l22 2 0 103 -566 0 0 -103 23 -2c69,-6 108,-11 125,-29 17,-18 20,-57 20,-131l0 -769c0,-74 -3,-113 -21,-131 -18,-18 -57,-23 -130,-29l-22 -2 0 -103 562 0 0 102 -23 2c-65,7 -101,11 -118,29 -16,19 -19,57 -19,132l0 281 582 0 0 -281c0,-74 -3,-112 -20,-131 -17,-18 -54,-23 -121,-30l-22 -2 0 -102 24 0zm1820 1135c59,-48 108,-120 156,-212l9 -19 100 36 -7 22c-16,52 -38,122 -61,183 -17,47 -35,90 -50,118l-6 9 -10 3c-27,7 -82,20 -147,31 -66,12 -143,22 -213,22 -226,0 -396,-72 -513,-179 -141,-129 -207,-310 -207,-482 0,-208 79,-381 215,-503 136,-123 330,-193 555,-193 125,0 235,27 302,43 18,4 32,8 43,10l17 3 15 99c10,71 20,135 28,213l3 22 -104 23 -6 -23c-24,-98 -65,-165 -122,-207 -57,-43 -132,-61 -226,-61 -140,0 -249,57 -325,145 -86,101 -131,243 -131,390 0,173 49,317 132,419 83,101 201,159 338,159 89,0 158,-25 215,-71zm1772 84l0 80 -195 0c-69,0 -119,-18 -159,-51 -39,-32 -69,-79 -98,-140l-1 -2c-28,-58 -83,-173 -131,-271l-1 0c-35,-76 -69,-119 -109,-141 -33,-20 -72,-25 -119,-26l0 360c0,78 3,119 20,138 16,18 52,23 119,28l22 2 0 103 -552 0 0 -103 22 -2c67,-5 103,-10 119,-28 17,-19 20,-59 20,-136l0 -771c0,-71 -3,-109 -19,-127 -16,-17 -53,-22 -120,-27l-22 -2 0 -103 552 0 0 103 -22 2c-67,5 -104,10 -120,27 -16,18 -19,56 -19,127l0 295c48,-2 84,-6 114,-16 33,-10 60,-28 89,-56l0 0c54,-51 89,-130 155,-277l7 -15c35,-78 72,-131 112,-166 42,-37 88,-53 137,-53 37,0 68,11 90,28 26,20 40,48 40,78 0,25 -13,45 -32,60 -18,14 -44,22 -70,23l-44 0c-32,0 -57,14 -84,47 -30,37 -63,98 -107,188 -38,77 -79,128 -114,162 -16,16 -31,28 -44,38 33,12 63,27 91,48 40,31 77,72 110,131l0 0c17,30 40,73 66,124 23,44 50,95 83,155 30,57 57,91 87,110 29,20 63,27 105,32l22 2 0 22zm1647 0l0 80 -554 0 0 -103 23 -2c67,-5 105,-9 122,-28 17,-19 20,-59 20,-138l0 -492c0,-30 0,-70 1,-133 1,-38 2,-83 4,-136l-546 924c-6,10 -9,19 -11,29 -2,10 -3,20 -3,31l0 48 -408 0 0 -105 23 -1c67,-6 103,-11 120,-31 17,-20 20,-64 20,-145l0 -754c0,-73 -2,-111 -19,-130 -17,-18 -54,-23 -121,-28l-23 -2 0 -103 551 0 0 103 -23 2c-66,5 -102,10 -119,27 -17,19 -20,57 -20,129l0 454c0,41 0,85 -1,150 -1,42 -2,89 -5,145l541 -913c7,-12 12,-22 15,-31 2,-8 3,-15 3,-22l0 -44 410 0 0 103 -22 2c-68,5 -105,10 -122,30 -18,21 -21,64 -21,143l0 750c0,78 3,118 21,138 17,18 54,23 122,28l22 2 0 23zm1696 0l0 80 -555 0 0 -103 23 -2c68,-5 105,-9 122,-28 18,-19 21,-59 21,-138l0 -492c0,-30 0,-70 1,-133 1,-38 2,-83 3,-136l-546 924c-6,10 -9,19 -11,29 -2,10 -2,20 -2,31l0 48 -409 0 0 -105 23 -1c67,-6 104,-11 120,-31 18,-20 21,-64 21,-145l0 -754c0,-73 -3,-111 -20,-130 -17,-18 -53,-23 -121,-28l-23 -2 0 -103 551 0 0 103 -22 2c-66,5 -103,10 -119,27 -17,19 -21,57 -21,129l0 454c0,41 0,85 -1,150 -1,42 -2,89 -4,145l541 -913c7,-12 11,-22 14,-31 3,-8 4,-15 4,-22l0 -44 410 0 0 103 -23 2c-67,5 -104,10 -121,30 -18,21 -22,64 -22,143l0 750c0,78 4,118 21,138 17,18 55,23 122,28l23 2 0 23zm-470 -1309c-47,31 -112,49 -189,49 -79,0 -143,-18 -188,-48 -49,-32 -77,-79 -77,-136 0,-26 10,-53 28,-73 16,-18 39,-31 68,-31l6 1c31,1 53,16 67,37 13,18 19,42 19,62l-1 9c0,17 6,30 17,39 12,11 31,17 55,18l6 0c27,0 46,-6 58,-16 12,-10 18,-26 18,-44l0 -5c0,-23 6,-47 20,-65 15,-20 37,-34 68,-35l5 -1c30,0 53,12 70,30 18,19 28,46 28,74 0,56 -29,103 -78,135zm2419 1265l141 0 -52 451 -104 0 -26 -198c-8,-58 -17,-91 -34,-109 -16,-16 -41,-20 -82,-20l-1044 0 0 -103 23 -2c70,-5 109,-9 126,-28 17,-20 20,-61 20,-142l0 -759c0,-74 -3,-114 -20,-133 -17,-18 -55,-23 -124,-27l-23 -2 0 -103 564 0 0 103 -23 2c-68,4 -106,9 -123,27 -18,19 -21,59 -21,133l0 802c0,54 2,83 14,96 12,12 39,14 90,14l323 0c52,0 80,-1 91,-12 12,-11 14,-38 14,-91l0 -799c0,-80 -3,-122 -21,-142 -17,-19 -54,-24 -124,-28l-22 -2 0 -103 562 0 0 103 -23 2c-68,4 -106,9 -122,28 -18,20 -21,62 -21,142l0 828c0,40 2,60 7,68 3,4 14,4 34,4zm1360 -121c16,-31 32,-66 46,-103l7 -19 100 17 -3 23c-4,30 -14,80 -25,133 -15,68 -32,141 -41,175l-5 19 -981 0 0 -103 23 -2c80,-6 124,-12 145,-32 19,-19 22,-58 22,-130l0 -759c0,-80 -3,-120 -20,-139 -17,-19 -54,-23 -121,-30l-22 -2 0 -102 914 0 0 25c0,23 2,66 6,117 3,49 7,108 11,160l2 22 -105 17 -4 -23c-9,-38 -18,-68 -28,-93 -10,-24 -21,-44 -32,-62 -11,-16 -27,-27 -54,-34 -31,-8 -75,-11 -140,-11l-136 0c-24,0 -37,1 -40,3 -3,3 -3,14 -3,36l0 409 149 0c80,0 123,-4 145,-20 20,-14 28,-47 38,-105l4 -20 102 0 0 420 -102 0 -4 -20c-11,-62 -19,-95 -40,-110 -23,-16 -65,-18 -143,-18l-149 0 0 331c0,43 2,75 9,98 6,19 14,32 26,40 31,19 95,19 183,19 67,0 114,-4 148,-13 31,-8 52,-22 70,-42 16,-19 32,-43 48,-72zm1295 -1054l539 0 0 103 -22 2c-72,6 -111,11 -128,29 -18,18 -21,57 -21,131l0 769c0,74 3,113 21,131 17,18 56,23 128,29l22 2 0 103 -577 0 0 -103 22 -2c75,-6 116,-11 134,-29 18,-18 21,-57 21,-131l0 -354 -582 0 0 354c0,74 3,113 20,131 17,18 56,23 127,29l22 2 0 103 -566 0 0 -103 22 -2c70,-6 108,-11 125,-29 17,-18 20,-57 20,-131l0 -769c0,-74 -2,-113 -20,-131 -18,-18 -57,-23 -130,-29l-23 -2 0 -103 562 0 0 102 -22 2c-66,7 -102,11 -118,29 -16,19 -19,57 -19,132l0 281 582 0 0 -281c0,-74 -3,-112 -20,-131 -17,-18 -54,-23 -122,-30l-22 -2 0 -102 25 0zm1980 122c4,65 9,136 14,199l2 23 -103 11 -4 -21c-11,-46 -20,-81 -31,-109 -9,-26 -19,-44 -30,-59 -14,-17 -27,-29 -51,-36 -27,-8 -68,-12 -136,-12l-102 0 0 916c0,70 3,109 22,128 22,21 67,27 151,32l23 2 0 103 -614 0 0 -103 23 -2c80,-5 123,-11 143,-31 19,-20 22,-59 22,-129l0 -916 -85 0c-77,0 -125,4 -155,13 -26,7 -38,19 -47,35l-1 1c-10,15 -20,35 -30,62 -10,28 -20,63 -30,105l-4 19 -105 0 2 -26c2,-43 6,-85 9,-127 6,-80 11,-158 14,-224l1 -24 77 0 7 12c11,17 20,26 31,31 12,5 30,5 54,5l763 0c22,0 36,-2 47,-7 11,-6 20,-16 33,-31l7 -10 78 0 0 25c0,39 2,90 5,145zm338 -42l0 -80 511 0c71,0 135,6 191,19 58,14 107,35 148,65l0 0c44,32 79,73 103,124 22,48 34,104 34,168 0,122 -41,215 -106,283 -76,80 -183,123 -292,138 -14,1 -30,3 -45,3 -16,0 -33,0 -45,-1l-2 -1 -112 -29 0 265c0,74 3,113 22,131 20,19 63,24 142,29l23 2 0 103 -583 0 0 -103 22 -2c70,-5 108,-10 126,-30 18,-19 21,-58 21,-132l0 -763c0,-79 -3,-119 -20,-137 -16,-18 -51,-22 -115,-27l-23 -2 0 -23zm389 64c-2,12 -4,29 -4,52l0 459c11,3 25,7 41,9 20,3 43,5 68,5 60,0 130,-18 179,-75 38,-44 64,-110 64,-210 0,-91 -26,-156 -67,-200 -47,-49 -115,-72 -190,-72 -22,0 -42,2 -57,6 -13,3 -22,7 -25,10l-2 2c-3,2 -5,6 -7,14z"/>
  </g>
 </g>
</svg>
